<mxfile host="app.diagrams.net" modified="2023-07-06T12:30:55.672Z" agent="Mozilla/5.0 (Windows NT 10.0; Win64; x64) AppleWebKit/537.36 (KHTML, like Gecko) Chrome/114.0.0.0 Safari/537.36" version="21.6.1" etag="Zf31z7dOZhL1Ekhs-gAp" type="github">
  <diagram name="PÃ¡gina-1" id="z_V5bqqsgHs7v7Lt6zA7">
    <mxGraphModel>
      <root>
        <mxCell id="0" />
        <mxCell id="1" parent="0" />
      </root>
    </mxGraphModel>
  </diagram>
</mxfile>
